<svg width="403" height="693" viewBox="0 0 403 693" xmlns="http://www.w3.org/2000/svg" lang="en" xml:lang="en"><rect x="2" y="2" stroke-width="4" rx="0" width="399" height="689" stroke="#0d1117" fill="#0d1117"/><g font-weight="600" font-size="110pt" font-family="Verdana,Geneva,DejaVu Sans,sans-serif" text-rendering="geometricPrecision"><g transform="translate(0, 21)" fill="#c9d1d9"><g transform="translate(15, 0)"><g transform="scale(0.095)"><text x="0" y="132" textLength="1851" lengthAdjust="spacingAndGlyphs">General Stats and Info</text></g></g><g transform="translate(15, 21)"><path fill="#1f6feb" fill-rule="evenodd" d="M13.25 0a.75.75 0 01.75.75V2h1.25a.75.75 0 010 1.5H14v1.25a.75.75 0 01-1.5 0V3.5h-1.25a.75.75 0 010-1.5h1.25V.75a.75.75 0 01.75-.75zM5.5 4a2 2 0 100 4 2 2 0 000-4zm2.4 4.548a3.5 3.5 0 10-4.799 0 5.527 5.527 0 00-3.1 4.66.75.75 0 101.498.085A4.01 4.01 0 015.5 9.5a4.01 4.01 0 014.001 3.793.75.75 0 101.498-.086 5.527 5.527 0 00-3.1-4.659z"/><g transform="scale(0.095)"><text lengthAdjust="spacingAndGlyphs" textLength="932" x="263" y="132">Year Joined</text><text lengthAdjust="spacingAndGlyphs" textLength="420" x="2116" y="132">2019</text></g></g><g transform="translate(15, 42)"><path fill="#1f6feb" fill-rule="evenodd" d="M8 .25a.75.75 0 01.673.418l1.882 3.815 4.21.612a.75.75 0 01.416 1.279l-3.046 2.97.719 4.192a.75.75 0 01-1.088.791L8 12.347l-3.766 1.98a.75.75 0 01-1.088-.79l.72-4.194L.818 6.374a.75.75 0 01.416-1.28l4.21-.611L7.327.668A.75.75 0 018 .25zm0 2.445L6.615 5.5a.75.75 0 01-.564.41l-3.097.45 2.24 2.184a.75.75 0 01.216.664l-.528 3.084 2.769-1.456a.75.75 0 01.698 0l2.77 1.456-.53-3.084a.75.75 0 01.216-.664l2.24-2.183-3.096-.45a.75.75 0 01-.564-.41L8 2.694v.001z"/><g transform="scale(0.095)"><text lengthAdjust="spacingAndGlyphs" textLength="1532" x="263" y="132">Most Starred Repo</text><text lengthAdjust="spacingAndGlyphs" textLength="886" x="2116" y="132">NoADS_RU</text></g></g><g transform="translate(15, 63)"><path fill="#1f6feb" fill-rule="evenodd" d="M5 3.25a.75.75 0 11-1.5 0 .75.75 0 011.5 0zm0 2.122a2.25 2.25 0 10-1.5 0v.878A2.25 2.25 0 005.75 8.5h1.5v2.128a2.251 2.251 0 101.5 0V8.5h1.5a2.25 2.25 0 002.25-2.25v-.878a2.25 2.25 0 10-1.5 0v.878a.75.75 0 01-.75.75h-4.5A.75.75 0 015 6.25v-.878zm3.75 7.378a.75.75 0 11-1.5 0 .75.75 0 011.5 0zm3-8.75a.75.75 0 100-1.5.75.75 0 000 1.5z"/><g transform="scale(0.095)"><text lengthAdjust="spacingAndGlyphs" textLength="1485" x="263" y="132">Most Forked Repo</text><text lengthAdjust="spacingAndGlyphs" textLength="664" x="2116" y="132">emmcdl</text></g></g><g transform="translate(15, 84)"><path fill="#1f6feb" fill-rule="evenodd" d="M5.5 3.5a2 2 0 100 4 2 2 0 000-4zM2 5.5a3.5 3.5 0 115.898 2.549 5.507 5.507 0 013.034 4.084.75.75 0 11-1.482.235 4.001 4.001 0 00-7.9 0 .75.75 0 01-1.482-.236A5.507 5.507 0 013.102 8.05 3.49 3.49 0 012 5.5zM11 4a.75.75 0 100 1.5 1.5 1.5 0 01.666 2.844.75.75 0 00-.416.672v.352a.75.75 0 00.574.73c1.2.289 2.162 1.2 2.522 2.372a.75.75 0 101.434-.44 5.01 5.01 0 00-2.56-3.012A3 3 0 0011 4z"/><g transform="scale(0.095)"><text lengthAdjust="spacingAndGlyphs" textLength="778" x="263" y="132">Followers</text><text lengthAdjust="spacingAndGlyphs" textLength="210" x="2116" y="132">61</text></g></g><g transform="translate(15, 105)"><path fill="#1f6feb" fill-rule="evenodd" d="M5.5 3.5a2 2 0 100 4 2 2 0 000-4zM2 5.5a3.5 3.5 0 115.898 2.549 5.507 5.507 0 013.034 4.084.75.75 0 11-1.482.235 4.001 4.001 0 00-7.9 0 .75.75 0 01-1.482-.236A5.507 5.507 0 013.102 8.05 3.49 3.49 0 012 5.5zM11 4a.75.75 0 100 1.5 1.5 1.5 0 01.666 2.844.75.75 0 00-.416.672v.352a.75.75 0 00.574.73c1.2.289 2.162 1.2 2.522 2.372a.75.75 0 101.434-.44 5.01 5.01 0 00-2.56-3.012A3 3 0 0011 4z"/><g transform="scale(0.095)"><text lengthAdjust="spacingAndGlyphs" textLength="780" x="263" y="132">Following</text><text lengthAdjust="spacingAndGlyphs" textLength="315" x="2116" y="132">362</text></g></g></g><g transform="translate(0, 168)" fill="#c9d1d9"><g transform="translate(15, 0)"><g transform="scale(0.095)"><text x="0" y="132" textLength="1020" lengthAdjust="spacingAndGlyphs">Repositories</text><text x="2116" y="132" textLength="832" lengthAdjust="spacingAndGlyphs">Non-Forks</text><text x="3168" y="132" textLength="206" lengthAdjust="spacingAndGlyphs">All</text></g></g><g transform="translate(15, 21)"><path fill="#1f6feb" fill-rule="evenodd" d="M2 2.5A2.5 2.5 0 014.5 0h8.75a.75.75 0 01.75.75v12.5a.75.75 0 01-.75.75h-2.5a.75.75 0 110-1.5h1.75v-2h-8a1 1 0 00-.714 1.7.75.75 0 01-1.072 1.05A2.495 2.495 0 012 11.5v-9zm10.5-1V9h-8c-.356 0-.694.074-1 .208V2.5a1 1 0 011-1h8zM5 12.25v3.25a.25.25 0 00.4.2l1.45-1.087a.25.25 0 01.3 0L8.6 15.7a.25.25 0 00.4-.2v-3.25a.25.25 0 00-.25-.25h-3.5a.25.25 0 00-.25.25z"/><g transform="scale(0.095)"><text lengthAdjust="spacingAndGlyphs" textLength="1312" x="263" y="132">My Repositories</text><text lengthAdjust="spacingAndGlyphs" textLength="210" x="2116" y="132">56</text><text lengthAdjust="spacingAndGlyphs" textLength="210" x="3168" y="132">64</text></g></g><g transform="translate(15, 42)"><path fill="#1f6feb" fill-rule="evenodd" d="M8 .25a.75.75 0 01.673.418l1.882 3.815 4.21.612a.75.75 0 01.416 1.279l-3.046 2.97.719 4.192a.75.75 0 01-1.088.791L8 12.347l-3.766 1.98a.75.75 0 01-1.088-.79l.72-4.194L.818 6.374a.75.75 0 01.416-1.28l4.21-.611L7.327.668A.75.75 0 018 .25zm0 2.445L6.615 5.5a.75.75 0 01-.564.41l-3.097.45 2.24 2.184a.75.75 0 01.216.664l-.528 3.084 2.769-1.456a.75.75 0 01.698 0l2.77 1.456-.53-3.084a.75.75 0 01.216-.664l2.24-2.183-3.096-.45a.75.75 0 01-.564-.41L8 2.694v.001z"/><g transform="scale(0.095)"><text lengthAdjust="spacingAndGlyphs" textLength="874" x="263" y="132">Starred By</text><text lengthAdjust="spacingAndGlyphs" textLength="315" x="2116" y="132">244</text><text lengthAdjust="spacingAndGlyphs" textLength="315" x="3168" y="132">246</text></g></g><g transform="translate(15, 63)"><path fill="#1f6feb" fill-rule="evenodd" d="M5 3.25a.75.75 0 11-1.5 0 .75.75 0 011.5 0zm0 2.122a2.25 2.25 0 10-1.5 0v.878A2.25 2.25 0 005.75 8.5h1.5v2.128a2.251 2.251 0 101.5 0V8.5h1.5a2.25 2.25 0 002.25-2.25v-.878a2.25 2.25 0 10-1.5 0v.878a.75.75 0 01-.75.75h-4.5A.75.75 0 015 6.25v-.878zm3.75 7.378a.75.75 0 11-1.5 0 .75.75 0 011.5 0zm3-8.75a.75.75 0 100-1.5.75.75 0 000 1.5z"/><g transform="scale(0.095)"><text lengthAdjust="spacingAndGlyphs" textLength="828" x="263" y="132">Forked By</text><text lengthAdjust="spacingAndGlyphs" textLength="210" x="2116" y="132">44</text><text lengthAdjust="spacingAndGlyphs" textLength="210" x="3168" y="132">44</text></g></g><g transform="translate(15, 84)"><path fill="#1f6feb" fill-rule="evenodd" d="M1.679 7.932c.412-.621 1.242-1.75 2.366-2.717C5.175 4.242 6.527 3.5 8 3.5c1.473 0 2.824.742 3.955 1.715 1.124.967 1.954 2.096 2.366 2.717a.119.119 0 010 .136c-.412.621-1.242 1.75-2.366 2.717C10.825 11.758 9.473 12.5 8 12.5c-1.473 0-2.824-.742-3.955-1.715C2.92 9.818 2.09 8.69 1.679 8.068a.119.119 0 010-.136zM8 2c-1.981 0-3.67.992-4.933 2.078C1.797 5.169.88 6.423.43 7.1a1.619 1.619 0 000 1.798c.45.678 1.367 1.932 2.637 3.024C4.329 13.008 6.019 14 8 14c1.981 0 3.67-.992 4.933-2.078 1.27-1.091 2.187-2.345 2.637-3.023a1.619 1.619 0 000-1.798c-.45-.678-1.367-1.932-2.637-3.023C11.671 2.992 9.981 2 8 2zm0 8a2 2 0 100-4 2 2 0 000 4z"/><g transform="scale(0.095)"><text lengthAdjust="spacingAndGlyphs" textLength="993" x="263" y="132">Watched By</text><text lengthAdjust="spacingAndGlyphs" textLength="315" x="2116" y="132">119</text><text lengthAdjust="spacingAndGlyphs" textLength="315" x="3168" y="132">123</text></g></g></g><g transform="translate(0, 294)" fill="#c9d1d9"><g transform="translate(15, 0)"><g transform="scale(0.095)"><text x="0" y="132" textLength="1112" lengthAdjust="spacingAndGlyphs">Contributions</text><text x="2116" y="132" textLength="774" lengthAdjust="spacingAndGlyphs">Past Year</text><text x="3168" y="132" textLength="414" lengthAdjust="spacingAndGlyphs">Total</text></g></g><g transform="translate(15, 21)"><path fill="#1f6feb" fill-rule="evenodd" d="M10.5 7.75a2.5 2.5 0 11-5 0 2.5 2.5 0 015 0zm1.43.75a4.002 4.002 0 01-7.86 0H.75a.75.75 0 110-1.5h3.32a4.001 4.001 0 017.86 0h3.32a.75.75 0 110 1.5h-3.32z"/><g transform="scale(0.095)"><text lengthAdjust="spacingAndGlyphs" textLength="734" x="263" y="132">Commits</text><text lengthAdjust="spacingAndGlyphs" textLength="315" x="2116" y="132">361</text><text lengthAdjust="spacingAndGlyphs" textLength="420" x="3168" y="132">3610</text></g></g><g transform="translate(15, 42)"><path fill="#1f6feb" d="M8 9.5a1.5 1.5 0 100-3 1.5 1.5 0 000 3z"/><path fill="#1f6feb" fill-rule="evenodd" d="M8 0a8 8 0 100 16A8 8 0 008 0zM1.5 8a6.5 6.5 0 1113 0 6.5 6.5 0 01-13 0z"/><g transform="scale(0.095)"><text lengthAdjust="spacingAndGlyphs" textLength="512" x="263" y="132">Issues</text><text lengthAdjust="spacingAndGlyphs" textLength="105" x="2116" y="132">0</text><text lengthAdjust="spacingAndGlyphs" textLength="105" x="3168" y="132">9</text></g></g><g transform="translate(15, 63)"><path fill="#1f6feb" fill-rule="evenodd" d="M7.177 3.073L9.573.677A.25.25 0 0110 .854v4.792a.25.25 0 01-.427.177L7.177 3.427a.25.25 0 010-.354zM3.75 2.5a.75.75 0 100 1.5.75.75 0 000-1.5zm-2.25.75a2.25 2.25 0 113 2.122v5.256a2.251 2.251 0 11-1.5 0V5.372A2.25 2.25 0 011.5 3.25zM11 2.5h-1V4h1a1 1 0 011 1v5.628a2.251 2.251 0 101.5 0V5A2.5 2.5 0 0011 2.5zm1 10.25a.75.75 0 111.5 0 .75.75 0 01-1.5 0zM3.75 12a.75.75 0 100 1.5.75.75 0 000-1.5z"/><g transform="scale(0.095)"><text lengthAdjust="spacingAndGlyphs" textLength="1113" x="263" y="132">Pull Requests</text><text lengthAdjust="spacingAndGlyphs" textLength="105" x="2116" y="132">3</text><text lengthAdjust="spacingAndGlyphs" textLength="210" x="3168" y="132">79</text></g></g></g><g transform="translate(0, 399)" fill="#c9d1d9"><g transform="translate(15, 0)"><g transform="scale(0.095)"><text x="0" y="132" textLength="3652" lengthAdjust="spacingAndGlyphs">Language Distribution in Public Repositories</text></g></g><g transform="translate(216, 21)"><circle cx="81" cy="81" r="81" fill="#ffffff"/></g><g transform="translate(217, 22)"><path fill-rule="evenodd" fill="#178600" d="M 0.0,80.00000000000001 A 80 80 0 1 1 71.46367235479808 159.543265650423 L 80,80 Z"/><path fill-rule="evenodd" fill="#f34b7d" d="M 71.46367235479808,159.543265650423 A 80 80 0 0 1 30.196794109892622 142.60703381464077 L 80,80 Z"/><path fill-rule="evenodd" fill="#f1e05a" d="M 30.196794109892622,142.60703381464077 A 80 80 0 0 1 11.467273133386982 121.27063542309733 L 80,80 Z"/><path fill-rule="evenodd" fill="#dea584" d="M 11.467273133386982,121.27063542309733 A 80 80 0 0 1 6.515002902005463 111.62206826739413 L 80,80 Z"/><path fill-rule="evenodd" fill="#e34c26" d="M 6.515002902005463,111.62206826739413 A 80 80 0 0 1 2.924773925208825 101.43384066190264 L 80,80 Z"/><path fill-rule="evenodd" fill="#012456" d="M 2.924773925208825,101.43384066190264 A 80 80 0 0 1 1.8012362519374534 96.88056125473025 L 80,80 Z"/><path fill-rule="evenodd" fill="#555555" d="M 1.8012362519374534,96.88056125473025 A 80 80 0 0 1 1.1268008705440593 93.37977799087825 L 80,80 Z"/><path fill-rule="evenodd" fill="#3572A5" d="M 1.1268008705440593,93.37977799087825 A 80 80 0 0 1 0.6337639051428283 90.0499038868733 L 80,80 Z"/><path fill-rule="evenodd" fill="#6E4C13" d="M 0.6337639051428283,90.0499038868733 A 80 80 0 0 1 0.3691232459274545 87.67616228187687 L 80,80 Z"/><path fill-rule="evenodd" fill="#C1F12E" d="M 0.3691232459274545,87.67616228187687 A 80 80 0 0 1 0.17914430974728646 85.35079404162151 L 80,80 Z"/><path fill-rule="evenodd" fill="#89e051" d="M 0.17914430974728646,85.35079404162151 A 80 80 0 0 1 0.08467088297680903 83.6796972861724 L 80,80 Z"/><path fill-rule="evenodd" fill="#00ADD8" d="M 0.08467088297680903,83.6796972861724 A 80 80 0 0 1 0.028082563550256623 82.11953333016116 L 80,80 Z"/><path fill-rule="evenodd" fill="#563d7c" d="M 0.028082563550256623,82.11953333016116 A 80 80 0 0 1 0.008683390790722001 81.17867176314675 L 80,80 Z"/><path fill-rule="evenodd" fill="#c6538c" d="M 0.008683390790722001,81.17867176314675 A 80 80 0 0 1 0.0009271046303496178 80.38514397481148 L 80,80 Z"/><path fill-rule="evenodd" fill="#ba595e" d="M 0.0009271046303496178,80.38514397481148 A 80 80 0 0 1 0.0004762933839828065 80.27605563674865 L 80,80 Z"/><path fill-rule="evenodd" fill="#959da5" d="M 0.0004762933839828065,80.27605563674865 A 80 80 0 0 1 0.0 80.00000000000003 L 80,80 Z"/></g><g transform="translate(15, 21)"><rect x="0.5" y="0.5" rx="2" width="15" height="15" fill="#178600" stroke-width="1" stroke="#ffffff"/><text transform="scale(0.095)" x="263" y="132" textLength="936" lengthAdjust="spacingAndGlyphs">C# 76.70%</text></g><g transform="translate(15, 42)"><rect x="0.5" y="0.5" rx="2" width="15" height="15" fill="#f34b7d" stroke-width="1" stroke="#ffffff"/><text transform="scale(0.095)" x="263" y="132" textLength="969" lengthAdjust="spacingAndGlyphs">C++ 8.99%</text></g><g transform="translate(15, 63)"><rect x="0.5" y="0.5" rx="2" width="15" height="15" fill="#f1e05a" stroke-width="1" stroke="#ffffff"/><text transform="scale(0.095)" x="263" y="132" textLength="1412" lengthAdjust="spacingAndGlyphs">JavaScript 5.68%</text></g><g transform="translate(15, 84)"><rect x="0.5" y="0.5" rx="2" width="15" height="15" fill="#dea584" stroke-width="1" stroke="#ffffff"/><text transform="scale(0.095)" x="263" y="132" textLength="946" lengthAdjust="spacingAndGlyphs">Rust 2.16%</text></g><g transform="translate(15, 105)"><rect x="0.5" y="0.5" rx="2" width="15" height="15" fill="#e34c26" stroke-width="1" stroke="#ffffff"/><text transform="scale(0.095)" x="263" y="132" textLength="1036" lengthAdjust="spacingAndGlyphs">HTML 2.15%</text></g><g transform="translate(15, 126)"><rect x="0.5" y="0.5" rx="2" width="15" height="15" fill="#012456" stroke-width="1" stroke="#ffffff"/><text transform="scale(0.095)" x="263" y="132" textLength="1486" lengthAdjust="spacingAndGlyphs">PowerShell 0.93%</text></g><g transform="translate(15, 147)"><rect x="0.5" y="0.5" rx="2" width="15" height="15" fill="#555555" stroke-width="1" stroke="#ffffff"/><text transform="scale(0.095)" x="263" y="132" textLength="693" lengthAdjust="spacingAndGlyphs">C 0.71%</text></g><g transform="translate(15, 168)"><rect x="0.5" y="0.5" rx="2" width="15" height="15" fill="#3572A5" stroke-width="1" stroke="#ffffff"/><text transform="scale(0.095)" x="263" y="132" textLength="1149" lengthAdjust="spacingAndGlyphs">Python 0.67%</text></g><g transform="translate(15, 189)"><rect x="0.5" y="0.5" rx="2" width="15" height="15" fill="#6E4C13" stroke-width="1" stroke="#ffffff"/><text transform="scale(0.095)" x="263" y="132" textLength="1372" lengthAdjust="spacingAndGlyphs">Assembly 0.48%</text><rect x="201.5" y="0.5" rx="2" width="15" height="15" fill="#C1F12E" stroke-width="1" stroke="#ffffff"/><text transform="scale(0.095)" x="2379" y="132" textLength="1304" lengthAdjust="spacingAndGlyphs">Batchfile 0.46%</text></g><g transform="translate(15, 210)"><rect x="0.5" y="0.5" rx="2" width="15" height="15" fill="#89e051" stroke-width="1" stroke="#ffffff"/><text transform="scale(0.095)" x="263" y="132" textLength="982" lengthAdjust="spacingAndGlyphs">Shell 0.33%</text><rect x="201.5" y="0.5" rx="2" width="15" height="15" fill="#00ADD8" stroke-width="1" stroke="#ffffff"/><text transform="scale(0.095)" x="2379" y="132" textLength="806" lengthAdjust="spacingAndGlyphs">Go 0.31%</text></g><g transform="translate(15, 231)"><rect x="0.5" y="0.5" rx="2" width="15" height="15" fill="#563d7c" stroke-width="1" stroke="#ffffff"/><text transform="scale(0.095)" x="263" y="132" textLength="903" lengthAdjust="spacingAndGlyphs">CSS 0.19%</text><rect x="201.5" y="0.5" rx="2" width="15" height="15" fill="#c6538c" stroke-width="1" stroke="#ffffff"/><text transform="scale(0.095)" x="2379" y="132" textLength="1008" lengthAdjust="spacingAndGlyphs">SCSS 0.16%</text></g><g transform="translate(15, 252)"><rect x="0.5" y="0.5" rx="2" width="15" height="15" fill="#ba595e" stroke-width="1" stroke="#ffffff"/><text transform="scale(0.095)" x="263" y="132" textLength="705" lengthAdjust="spacingAndGlyphs">D 0.02%</text><rect x="201.5" y="0.5" rx="2" width="15" height="15" fill="#959da5" stroke-width="1" stroke="#ffffff"/><text transform="scale(0.095)" x="2379" y="132" textLength="1047" lengthAdjust="spacingAndGlyphs">Other 0.05%</text></g></g></g></svg>